<mxfile host="app.diagrams.net" modified="2024-02-26T03:36:03.593Z" agent="Mozilla/5.0 (Windows NT 10.0; Win64; x64) AppleWebKit/537.36 (KHTML, like Gecko) Chrome/122.0.0.0 Safari/537.36" etag="MIC-Dyu7SAmpAdOgBBia" version="23.1.6" type="device">
  <diagram name="Page-1" id="kA1ZJteYQIhIA9oufdB8">
    <mxGraphModel dx="2045" dy="660" grid="1" gridSize="10" guides="1" tooltips="1" connect="1" arrows="1" fold="1" page="1" pageScale="1" pageWidth="850" pageHeight="1100" math="0" shadow="0">
      <root>
        <mxCell id="0" />
        <mxCell id="1" parent="0" />
        <mxCell id="PZ62NXJFr02Q6_TOuK1y-28" value="" style="rounded=0;whiteSpace=wrap;html=1;" vertex="1" parent="1">
          <mxGeometry x="-110" y="240" width="890" height="210" as="geometry" />
        </mxCell>
        <mxCell id="YoYqr2ME7V0Ary8L3N5z-3" value="" style="endArrow=classic;html=1;rounded=0;" parent="1" edge="1">
          <mxGeometry width="50" height="50" relative="1" as="geometry">
            <mxPoint x="440" y="339" as="sourcePoint" />
            <mxPoint x="560" y="339" as="targetPoint" />
            <Array as="points">
              <mxPoint x="500" y="339" />
            </Array>
          </mxGeometry>
        </mxCell>
        <mxCell id="YoYqr2ME7V0Ary8L3N5z-7" value="GET Request API" style="text;html=1;align=center;verticalAlign=middle;whiteSpace=wrap;rounded=0;" parent="1" vertex="1">
          <mxGeometry x="460" y="300" width="70" height="30" as="geometry" />
        </mxCell>
        <mxCell id="YoYqr2ME7V0Ary8L3N5z-9" value="Blockchain" style="shape=cube;whiteSpace=wrap;html=1;boundedLbl=1;backgroundOutline=1;darkOpacity=0.05;darkOpacity2=0.1;" parent="1" vertex="1">
          <mxGeometry x="580" y="300" width="120" height="80" as="geometry" />
        </mxCell>
        <mxCell id="YoYqr2ME7V0Ary8L3N5z-10" value="" style="endArrow=classic;html=1;rounded=0;" parent="1" edge="1">
          <mxGeometry width="50" height="50" relative="1" as="geometry">
            <mxPoint x="560" y="360" as="sourcePoint" />
            <mxPoint x="430" y="360" as="targetPoint" />
            <Array as="points" />
          </mxGeometry>
        </mxCell>
        <mxCell id="YoYqr2ME7V0Ary8L3N5z-12" value="Backend Server" style="label;whiteSpace=wrap;html=1;image=img/clipart/Gear_128x128.png" parent="1" vertex="1">
          <mxGeometry x="280" y="310" width="140" height="60" as="geometry" />
        </mxCell>
        <mxCell id="YoYqr2ME7V0Ary8L3N5z-13" value="Response" style="text;html=1;align=center;verticalAlign=middle;whiteSpace=wrap;rounded=0;" parent="1" vertex="1">
          <mxGeometry x="460" y="370" width="60" height="30" as="geometry" />
        </mxCell>
        <mxCell id="YoYqr2ME7V0Ary8L3N5z-14" value="Smart Contract" style="shape=note;whiteSpace=wrap;html=1;backgroundOutline=1;darkOpacity=0.05;size=14;" parent="1" vertex="1">
          <mxGeometry x="680" y="340" width="50" height="60" as="geometry" />
        </mxCell>
        <mxCell id="PZ62NXJFr02Q6_TOuK1y-17" value="" style="endArrow=classic;html=1;rounded=0;" edge="1" parent="1">
          <mxGeometry width="50" height="50" relative="1" as="geometry">
            <mxPoint x="120" y="339" as="sourcePoint" />
            <mxPoint x="240" y="339" as="targetPoint" />
            <Array as="points">
              <mxPoint x="180" y="339" />
            </Array>
          </mxGeometry>
        </mxCell>
        <mxCell id="PZ62NXJFr02Q6_TOuK1y-18" value="GET Request API" style="text;html=1;align=center;verticalAlign=middle;whiteSpace=wrap;rounded=0;" vertex="1" parent="1">
          <mxGeometry x="140" y="300" width="70" height="30" as="geometry" />
        </mxCell>
        <mxCell id="PZ62NXJFr02Q6_TOuK1y-19" value="" style="endArrow=classic;html=1;rounded=0;" edge="1" parent="1">
          <mxGeometry width="50" height="50" relative="1" as="geometry">
            <mxPoint x="240" y="360" as="sourcePoint" />
            <mxPoint x="110" y="360" as="targetPoint" />
            <Array as="points" />
          </mxGeometry>
        </mxCell>
        <mxCell id="PZ62NXJFr02Q6_TOuK1y-20" value="Response" style="text;html=1;align=center;verticalAlign=middle;whiteSpace=wrap;rounded=0;" vertex="1" parent="1">
          <mxGeometry x="140" y="370" width="60" height="30" as="geometry" />
        </mxCell>
        <mxCell id="PZ62NXJFr02Q6_TOuK1y-21" value="Model" style="text;html=1;align=center;verticalAlign=middle;whiteSpace=wrap;rounded=0;" vertex="1" parent="1">
          <mxGeometry x="620" y="410" width="60" height="30" as="geometry" />
        </mxCell>
        <mxCell id="PZ62NXJFr02Q6_TOuK1y-22" value="Controller" style="text;html=1;align=center;verticalAlign=middle;whiteSpace=wrap;rounded=0;" vertex="1" parent="1">
          <mxGeometry x="320" y="410" width="60" height="30" as="geometry" />
        </mxCell>
        <mxCell id="PZ62NXJFr02Q6_TOuK1y-23" value="View" style="text;html=1;align=center;verticalAlign=middle;whiteSpace=wrap;rounded=0;" vertex="1" parent="1">
          <mxGeometry x="-20" y="410" width="60" height="30" as="geometry" />
        </mxCell>
        <mxCell id="PZ62NXJFr02Q6_TOuK1y-26" value="&amp;nbsp; &amp;nbsp; Frontend Client" style="html=1;whiteSpace=wrap;container=1;recursiveResize=0;collapsible=0;" vertex="1" parent="1">
          <mxGeometry x="-70" y="310" width="160" height="70" as="geometry" />
        </mxCell>
        <mxCell id="PZ62NXJFr02Q6_TOuK1y-27" value="" style="triangle;html=1;whiteSpace=wrap;" vertex="1" parent="PZ62NXJFr02Q6_TOuK1y-26">
          <mxGeometry x="20" y="20" width="20" height="30" as="geometry" />
        </mxCell>
      </root>
    </mxGraphModel>
  </diagram>
</mxfile>
